<?xml version="1.0" encoding="UTF-8" standalone="no"?>
<svg
   xmlns:dc="http://purl.org/dc/elements/1.1/"
   xmlns:cc="http://creativecommons.org/ns#"
   xmlns:rdf="http://www.w3.org/1999/02/22-rdf-syntax-ns#"
   xmlns:svg="http://www.w3.org/2000/svg"
   xmlns="http://www.w3.org/2000/svg"
   xmlns:sodipodi="http://sodipodi.sourceforge.net/DTD/sodipodi-0.dtd"
   xmlns:inkscape="http://www.inkscape.org/namespaces/inkscape"
   width="201pt"
   version="1.1"
   height="120pt"
   viewBox="0 0 201 120"
   id="svg3862"
   inkscape:version="0.48.3.1 r9886"
   sodipodi:docname="T1-3.svg">
  <metadata
     id="metadata3937">
    <rdf:RDF>
      <cc:Work
         rdf:about="">
        <dc:format>image/svg+xml</dc:format>
        <dc:type
           rdf:resource="http://purl.org/dc/dcmitype/StillImage" />
      </cc:Work>
    </rdf:RDF>
  </metadata>
  <sodipodi:namedview
     pagecolor="#ffffff"
     bordercolor="#666666"
     borderopacity="1"
     objecttolerance="10"
     gridtolerance="10"
     guidetolerance="10"
     inkscape:pageopacity="0"
     inkscape:pageshadow="2"
     inkscape:window-width="1366"
     inkscape:window-height="709"
     id="namedview3935"
     showgrid="false"
     inkscape:zoom="3.4689517"
     inkscape:cx="88.613999"
     inkscape:cy="78.423128"
     inkscape:window-x="0"
     inkscape:window-y="27"
     inkscape:window-maximized="1"
     inkscape:current-layer="svg3862"
     borderlayer="true" />
  <defs
     id="defs3864">
    <clipPath
       id="Clip0">
      <path
         d="M0 0 L201 0 L201 120 L0 120 L0 0 Z"
         transform="translate(0, 0)"
         id="path3867" />
    </clipPath>
    <clipPath
       id="Clip1">
      <path
         d="M0 0 L201 0 L201 120 L0 120 L0 0 Z"
         transform="translate(0, 0)"
         id="path3870" />
    </clipPath>
  </defs>
  <g
     id="Background">
    <g
       id="Group1"
       clip-path="url(#Clip0)">
      <g
         id="Group2"
         clip-path="url(#Clip1)">
        <path
           style="fill:none;stroke:#000000; stroke-width:0.8; stroke-linecap:butt; stroke-linejoin:miter; stroke-dasharray:none;"
           d="M0 0 L60 0 "
           transform="translate(0.681641, 99.375)"
           id="path3875" />
        <path
           style="fill:#000000; fill-rule:nonzero;stroke:none;"
           d="M5.3994 2.1602 L0 0 L0 4.3202 L5.3994 2.1602 "
           transform="translate(27.9824, 97.2148)"
           id="path3877" />
        <path
           style="fill:none;stroke:#000000; stroke-width:0.8; stroke-linecap:butt; stroke-linejoin:miter; stroke-dasharray:3 3 ; stroke-dashoffset:0;"
           d="M0 0 L40.0004 0 "
           transform="translate(60.6816, 99.375)"
           id="path3879" />
        <path
           style="fill:none;stroke:#000000; stroke-width:0.8; stroke-linecap:butt; stroke-linejoin:miter; stroke-dasharray:3 3 ; stroke-dashoffset:0;"
           d="M0 0 L40 0 "
           transform="translate(100.682, 99.375)"
           id="path3881" />
        <path
           style="fill:#000000; fill-rule:nonzero;stroke:none;"
           d="M5.3996 2.1602 L0 0 L0 4.3202 L5.3996 2.1602 "
           transform="translate(97.9824, 97.2148)"
           id="path3883" />
        <path
           style="fill:none;stroke:#000000; stroke-width:0.8; stroke-linecap:butt; stroke-linejoin:miter; stroke-dasharray:none;"
           d="M60 0 L0 0 "
           transform="translate(140.682, 99.375)"
           id="path3885" />
        <path
           style="fill:#000000; fill-rule:nonzero;stroke:none;"
           d="M0 2.1602 L5.4 4.3202 L5.4 0 L0 2.1602 "
           transform="translate(167.982, 97.2148)"
           id="path3887" />
        <path
           style="fill:none;stroke:#000000; stroke-width:0.8; stroke-linecap:butt; stroke-linejoin:miter; stroke-dasharray:none;"
           d="M0 0 L0 80 "
           transform="translate(60.6816, 19.375)"
           id="path3889" />
        <path
           style="fill:#000000; fill-rule:nonzero;stroke:none;"
           d="M2.1591 5.4004 L4.3193 0 L0 0 L2.1591 5.4004 "
           transform="translate(58.5225, 56.6748)"
           id="path3891" />
        <path
           style="fill:none;stroke:#000000; stroke-width:0.8; stroke-linecap:butt; stroke-linejoin:miter; stroke-dasharray:none;"
           d="M0 80 L0 0 "
           transform="translate(140.682, 19.375)"
           id="path3893" />
        <path
           style="fill:#000000; fill-rule:nonzero;stroke:none;"
           d="M2.16 0 L0 5.4004 L4.32 5.4004 L2.16 0 "
           transform="translate(138.522, 56.6748)"
           id="path3895" />
        <path
           style="fill:none;stroke:#000000; stroke-width:0.8; stroke-linecap:butt; stroke-linejoin:miter; stroke-dasharray:4 4 ; stroke-dashoffset:0;"
           d="M0 0 L30 0 "
           transform="translate(0.681641, 19.375)"
           id="path3897" />
        <path
           style="fill:none;stroke:#000000; stroke-width:0.8; stroke-linecap:butt; stroke-linejoin:miter; stroke-dasharray:4 4 ; stroke-dashoffset:0;"
           d="M0 0 L30 0 "
           transform="translate(30.6816, 19.375)"
           id="path3899" />
        <path
           style="fill:#000000; fill-rule:nonzero;stroke:none;"
           d="M5.3994 2.1602 L0 0 L0 4.3204 L5.3994 2.1602 "
           transform="translate(27.9824, 17.2148)"
           id="path3901" />
        <path
           style="fill:none;stroke:#000000; stroke-width:0.8; stroke-linecap:butt; stroke-linejoin:miter; stroke-dasharray:4 4 ; stroke-dashoffset:0;"
           d="M30 0 L0 0 "
           transform="translate(170.682, 19.375)"
           id="path3903" />
        <path
           style="fill:none;stroke:#000000; stroke-width:0.8; stroke-linecap:butt; stroke-linejoin:miter; stroke-dasharray:4 4 ; stroke-dashoffset:0;"
           d="M30 0 L0 0 "
           transform="translate(140.682, 19.375)"
           id="path3905" />
        <path
           style="fill:#000000; fill-rule:nonzero;stroke:none;"
           d="M0 2.1602 L5.4 4.3204 L5.4 0 L0 2.1602 "
           transform="translate(167.982, 17.2148)"
           id="path3907" />
        <path
           style="fill:none;stroke:#000000; stroke-width:0.8; stroke-linecap:butt; stroke-linejoin:miter; stroke-dasharray:none;"
           d="M80.0004 0 L0 0 "
           transform="translate(60.6816, 19.375)"
           id="path3909" />
        <path
           style="fill:#000000; fill-rule:nonzero;stroke:none;"
           d="M0 2.1602 L5.3996 4.3204 L5.3996 0 L0 2.1602 "
           transform="translate(97.9824, 17.2148)"
           id="path3911" />
        <path
           style="fill:#000000; fill-rule:evenodd;stroke:none;"
           d="M1.9882 0.121 C1.9882 0.074 1.9531 0 1.8593 0 C1.7734 0 0.6562 0.11 0.4765 0.121 C0.3437 0.133 0.2265 0.145 0.2265 0.36 C0.2265 0.477 0.3203 0.477 0.4882 0.477 C1.0468 0.477 1.082 0.563 1.082 0.692 C1.082 0.738 1.0585 0.883 1.0468 0.93 L0 5.137 C0 5.188 0.0351 5.258 0.1171 5.258 L0.3671 5.258 C0.5351 5.258 2.3476 4.828 3.7421 3.399 C5.2812 1.813 5.496 0.348 5.496 0.301 C5.496 0.11 5.3398 0 5.1835 0 C4.8398 0 4.7539 0.324 4.7304 0.406 C4.0273 2.899 2.3945 4.375 0.8085 4.899 L1.9882 0.121 Z"
           transform="translate(27.752, 114.117)"
           id="path3921" />
        <path
           style="fill:#000000; fill-rule:evenodd;stroke:none;"
           d="M1.988 0.121 C1.988 0.074 1.953 0 1.859 0 C1.773 0 0.656 0.11 0.476 0.121 C0.343 0.133 0.226 0.145 0.226 0.36 C0.226 0.477 0.32 0.477 0.488 0.477 C1.046 0.477 1.082 0.563 1.082 0.692 C1.082 0.738 1.058 0.883 1.046 0.93 L0 5.137 C0 5.188 0.035 5.258 0.117 5.258 L0.367 5.258 C0.535 5.258 2.347 4.828 3.742 3.399 C5.281 1.813 5.496 0.348 5.496 0.301 C5.496 0.11 5.339 0 5.183 0 C4.839 0 4.754 0.324 4.73 0.406 C4.027 2.899 2.394 4.375 0.808 4.899 L1.988 0.121 Z"
           transform="translate(167.225, 114.117)"
           id="path3923" />
        <path
           style="fill:#000000; fill-rule:evenodd;stroke:none;"
           d="M4.5663 0.11 C4.5663 0 4.4843 0 4.4493 0 C4.3403 0 4.3283 0.024 4.2813 0.227 L3.6363 2.789 C3.6013 2.946 3.5903 2.957 3.5783 2.969 C3.5663 2.992 3.4843 3.004 3.4573 3.004 C1.5039 3.172 0 4.782 0 6.27 C0 7.559 0.9922 8.344 2.2305 8.418 C2.1367 8.785 2.0508 9.168 1.957 9.535 C1.7891 10.168 1.6953 10.563 1.6953 10.61 C1.6953 10.633 1.6953 10.707 1.8125 10.707 C1.8477 10.707 1.8984 10.707 1.9219 10.657 C1.9453 10.633 2.0156 10.348 2.0625 10.192 L2.5039 8.418 C4.5433 8.309 6.0933 6.641 6.0933 5.137 C6.0933 3.934 5.1873 3.074 3.8633 2.992 L4.5663 0.11 Z M3.7933 3.231 C4.5783 3.278 5.3673 3.719 5.3673 4.887 C5.3673 6.235 4.4253 8.024 2.5664 8.168 L3.7933 3.231 Z M2.2891 8.18 C1.707 8.141 0.7305 7.832 0.7305 6.52 C0.7305 5.02 1.8125 3.352 3.5313 3.242 L2.2891 8.18 Z"
           transform="translate(97.2207, 108.78)"
           id="path3925" />
        <path
           style="fill:#000000;fill-rule:evenodd;stroke:none"
           d="m 47.521,49.2871 c 0,-0.0117 0.046,-0.1641 0.046,-0.1758 0,-0.1093 -0.093,-0.1093 -0.129,-0.1093 -0.109,0 -0.121,0.0585 -0.167,0.2382 l -1.965,7.8907 c -0.993,-0.1172 -1.36,-0.6172 -1.36,-1.3321 0,-0.2656 0,-0.539 0.559,-2.0156 0.156,-0.4297 0.215,-0.5859 0.215,-0.8008 0,-0.5351 -0.383,-0.9648 -0.942,-0.9648 -1.097,0 -1.539,1.7304 -1.539,1.8242 0,0.0469 0.051,0.1094 0.133,0.1094 0.106,0 0.117,-0.0508 0.168,-0.2149 0.285,-1.039 0.762,-1.4804 1.203,-1.4804 0.106,0 0.309,0.0117 0.309,0.3945 0,0.0469 0,0.3086 -0.203,0.8359 -0.641,1.6914 -0.641,1.9532 -0.641,2.2266 0,1.1445 0.953,1.5859 2.023,1.668 -0.093,0.3711 -0.175,0.7539 -0.273,1.1211 -0.191,0.7148 -0.273,1.0507 -0.273,1.0976 0,0.1094 0.093,0.1094 0.132,0.1094 0.024,0 0.071,0 0.094,-0.0508 0.047,-0.0469 0.535,-2.0508 0.582,-2.2617 0.442,0 1.383,0 2.457,-1.1094 0.395,-0.4297 0.75,-0.9805 0.953,-1.4922 0.121,-0.3086 0.407,-1.3711 0.407,-1.9765 0,-0.7149 -0.36,-0.8008 -0.477,-0.8008 -0.285,0 -0.547,0.2851 -0.547,0.5273 0,0.1406 0.082,0.2227 0.129,0.2735 0.109,0.1054 0.43,0.4296 0.43,1.0468 0,0.4297 -0.239,1.3125 -1,2.1719 -1.004,1.1172 -1.922,1.1172 -2.278,1.1172 l 1.954,-7.8672 z"
           id="path3933"
           inkscape:connector-curvature="0" />
        <path
           inkscape:connector-curvature="0"
           id="path3106"
           d="m 151.521,49.2871 c 0,-0.0117 0.046,-0.1641 0.046,-0.1758 0,-0.1093 -0.093,-0.1093 -0.129,-0.1093 -0.109,0 -0.121,0.0585 -0.167,0.2382 l -1.965,7.8907 c -0.993,-0.1172 -1.36,-0.6172 -1.36,-1.3321 0,-0.2656 0,-0.539 0.559,-2.0156 0.156,-0.4297 0.215,-0.5859 0.215,-0.8008 0,-0.5351 -0.383,-0.9648 -0.942,-0.9648 -1.097,0 -1.539,1.7304 -1.539,1.8242 0,0.0469 0.051,0.1094 0.133,0.1094 0.106,0 0.117,-0.0508 0.168,-0.2149 0.285,-1.039 0.762,-1.4804 1.203,-1.4804 0.106,0 0.309,0.0117 0.309,0.3945 0,0.0469 0,0.3086 -0.203,0.8359 -0.641,1.6914 -0.641,1.9532 -0.641,2.2266 0,1.1445 0.953,1.5859 2.023,1.668 -0.093,0.3711 -0.175,0.7539 -0.273,1.1211 -0.191,0.7148 -0.273,1.0507 -0.273,1.0976 0,0.1094 0.093,0.1094 0.132,0.1094 0.024,0 0.071,0 0.094,-0.0508 0.047,-0.0469 0.535,-2.0508 0.582,-2.2617 0.442,0 1.383,0 2.457,-1.1094 0.395,-0.4297 0.75,-0.9805 0.953,-1.4922 0.121,-0.3086 0.407,-1.3711 0.407,-1.9765 0,-0.7149 -0.36,-0.8008 -0.477,-0.8008 -0.285,0 -0.547,0.2851 -0.547,0.5273 0,0.1406 0.082,0.2227 0.129,0.2735 0.109,0.1054 0.43,0.4296 0.43,1.0468 0,0.4297 -0.239,1.3125 -1,2.1719 -1.004,1.1172 -1.922,1.1172 -2.278,1.1172 l 1.954,-7.8672 z"
           style="fill:#000000;fill-rule:evenodd;stroke:none" />
      </g>
    </g>
  </g>
  <text
     xml:space="preserve"
     style="font-size:12px;font-style:italic;font-variant:normal;font-weight:normal;font-stretch:normal;text-align:start;line-height:58.99999738%;letter-spacing:0px;word-spacing:0px;writing-mode:lr-tb;text-anchor:start;fill:#000000;fill-opacity:1;stroke:none;font-family:FreeSerif;-inkscape-font-specification:FreeSerif Italic"
     x="25.041752"
     y="11.281627"
     id="text3414"
     sodipodi:linespacing="58.999997%"><tspan
       sodipodi:role="line"
       id="tspan3416"
       x="25.041752"
       y="11.281627">h<tspan
   style="font-size:7.80010986px;font-style:normal;baseline-shift:super;-inkscape-font-specification:FreeSerif"
   id="tspan3418">0</tspan></tspan></text>
  <text
     sodipodi:linespacing="58.999997%"
     id="text3440"
     y="11.281627"
     x="165.04164"
     style="font-size:12px;font-style:italic;font-variant:normal;font-weight:normal;font-stretch:normal;text-align:start;line-height:58.99999738%;letter-spacing:0px;word-spacing:0px;writing-mode:lr-tb;text-anchor:start;fill:#000000;fill-opacity:1;stroke:none;font-family:FreeSerif;-inkscape-font-specification:FreeSerif Italic"
     xml:space="preserve"><tspan
       y="11.281627"
       x="165.04164"
       id="tspan3442"
       sodipodi:role="line">h<tspan
   id="tspan3444"
   style="font-size:7.80010986px;font-style:normal;baseline-shift:super;-inkscape-font-specification:FreeSerif">0</tspan></tspan></text>
  <g
     id="g3100"
     transform="translate(0,1.6036761)">
    <text
       sodipodi:linespacing="125%"
       id="text3060"
       y="59.145699"
       x="52.586163"
       style="font-size:19.20000076px;font-style:italic;font-variant:normal;font-weight:normal;font-stretch:normal;text-align:center;line-height:125%;letter-spacing:0px;word-spacing:0px;writing-mode:lr-tb;text-anchor:middle;fill:#000000;fill-opacity:1;stroke:none;font-family:FreeSerif;-inkscape-font-specification:FreeSerif Italic"
       xml:space="preserve"><tspan
         style="font-size:8px"
         y="59.145699"
         x="52.586163"
         id="tspan3062"
         sodipodi:role="line">L</tspan></text>
    <text
       sodipodi:linespacing="125%"
       id="text3064"
       y="51.765949"
       x="52.580727"
       style="font-size:8px;font-style:normal;font-variant:normal;font-weight:normal;font-stretch:normal;text-align:center;line-height:125%;letter-spacing:0px;word-spacing:0px;writing-mode:lr-tb;text-anchor:middle;fill:#000000;fill-opacity:1;stroke:none;font-family:FreeSerif;-inkscape-font-specification:FreeSerif"
       xml:space="preserve"><tspan
         y="51.765949"
         x="52.580727"
         id="tspan3066"
         sodipodi:role="line">0</tspan></text>
  </g>
  <g
     transform="translate(104,1.6036761)"
     id="g3108">
    <text
       xml:space="preserve"
       style="font-size:19.20000076px;font-style:italic;font-variant:normal;font-weight:normal;font-stretch:normal;text-align:center;line-height:125%;letter-spacing:0px;word-spacing:0px;writing-mode:lr-tb;text-anchor:middle;fill:#000000;fill-opacity:1;stroke:none;font-family:FreeSerif;-inkscape-font-specification:FreeSerif Italic"
       x="52.586163"
       y="59.145699"
       id="text3110"
       sodipodi:linespacing="125%"><tspan
         sodipodi:role="line"
         id="tspan3112"
         x="52.586163"
         y="59.145699"
         style="font-size:8px">R</tspan></text>
    <text
       xml:space="preserve"
       style="font-size:8px;font-style:normal;font-variant:normal;font-weight:normal;font-stretch:normal;text-align:center;line-height:125%;letter-spacing:0px;word-spacing:0px;writing-mode:lr-tb;text-anchor:middle;fill:#000000;fill-opacity:1;stroke:none;font-family:FreeSerif;-inkscape-font-specification:FreeSerif"
       x="52.580727"
       y="51.765949"
       id="text3114"
       sodipodi:linespacing="125%"><tspan
         sodipodi:role="line"
         id="tspan3116"
         x="52.580727"
         y="51.765949">0</tspan></text>
  </g>
  <text
     xml:space="preserve"
     style="font-size:12.80000019px;font-style:italic;font-variant:normal;font-weight:normal;font-stretch:normal;text-align:center;line-height:125%;letter-spacing:0px;word-spacing:0px;writing-mode:lr-tb;text-anchor:middle;fill:#000000;fill-opacity:1;stroke:none;font-family:FreeSerif;-inkscape-font-specification:FreeSerif Italic"
     x="102.39406"
     y="12.07114"
     id="text3118"
     sodipodi:linespacing="125%"><tspan
       sodipodi:role="line"
       id="tspan3120"
       x="102.39406"
       y="12.07114">N</tspan></text>
</svg>
